<?xml version="1.0" encoding="UTF-8" standalone="no"?>
<svg
   width="500"
   zoomAndPan="magnify"
   viewBox="0 0 375 168.75"
   height="225"
   preserveAspectRatio="xMidYMid"
   version="1.2"
   id="svg213"
   sodipodi:docname="Logo-LarDoceClick.svg"
   inkscape:version="1.2.2 (b0a8486541, 2022-12-01)"
   xmlns:inkscape="http://www.inkscape.org/namespaces/inkscape"
   xmlns:sodipodi="http://sodipodi.sourceforge.net/DTD/sodipodi-0.dtd"
   xmlns="http://www.w3.org/2000/svg"
   xmlns:svg="http://www.w3.org/2000/svg">
  <sodipodi:namedview
     id="namedview215"
     pagecolor="#505050"
     bordercolor="#ffffff"
     borderopacity="1"
     inkscape:showpageshadow="0"
     inkscape:pageopacity="0"
     inkscape:pagecheckerboard="1"
     inkscape:deskcolor="#505050"
     showgrid="false"
     inkscape:zoom="1.054"
     inkscape:cx="250"
     inkscape:cy="175.9962"
     inkscape:window-width="1366"
     inkscape:window-height="708"
     inkscape:window-x="0"
     inkscape:window-y="0"
     inkscape:window-maximized="1"
     inkscape:current-layer="svg213" />
  <defs
     id="defs8">
    <clipPath
       id="406292919e">
      <path
         d="M 97.226562,127.03125 H 250 v 51.75 H 97.226562 Z m 0,0"
         id="path2" />
    </clipPath>
    <clipPath
       id="bac01d0371">
      <path
         d="m 189,128 h 88.97656 v 50 H 189 Z m 0,0"
         id="path5" />
    </clipPath>
  </defs>
  <g
     id="840a55d8c9"
     transform="matrix(1.3491078,0,0,1.3491078,-67.147223,-166.77872)">
    <g
       clip-rule="nonzero"
       clip-path="url(#406292919e)"
       id="g12">
      <path
         style="fill:#ffffff;fill-opacity:1;fill-rule:evenodd;stroke:none"
         d="m 99.96875,178.28516 73.48437,-47.54297 c 0,0 73.48829,47.54297 73.48829,47.54297 0.76171,0.49218 1.78125,0.27343 2.26953,-0.48829 0.49218,-0.75781 0.27734,-1.77734 -0.48438,-2.26953 0,0 -74.3789,-48.11718 -74.3789,-48.11718 -0.54297,-0.35157 -1.24219,-0.35157 -1.78516,0 0,0 -74.378906,48.11718 -74.378906,48.11718 -0.757813,0.49219 -0.976563,1.51172 -0.484375,2.26953 0.492187,0.76172 1.507812,0.98047 2.269531,0.48829 z m 0,0"
         id="path10" />
    </g>
    <g
       clip-rule="nonzero"
       clip-path="url(#bac01d0371)"
       id="g16">
      <path
         style="fill:#ffffff;fill-opacity:1;fill-rule:evenodd;stroke:none"
         d="m 191.625,140.46484 13.51562,-8.74609 c 0,0 69.48047,45.57812 69.48047,45.57812 0.75391,0.4961 1.77344,0.28516 2.26953,-0.47265 0.4961,-0.75781 0.28516,-1.77344 -0.47265,-2.27344 0,0 -70.3711,-46.16406 -70.3711,-46.16406 -0.54296,-0.35547 -1.24609,-0.35938 -1.78906,-0.008 0,0 -5.98437,3.87109 -14.41797,9.32812 -0.76172,0.49219 -0.98047,1.50781 -0.48437,2.26953 0.48828,0.76172 1.50781,0.97656 2.26953,0.48828 z m 0,0"
         id="path14" />
    </g>
    <path
       style="fill:#ffffff;fill-opacity:1;fill-rule:evenodd;stroke:none"
       d="m 139.88281,150.98437 v -12.39453 c 0,-0.90234 -0.73437,-1.63672 -1.63672,-1.63672 h -13.67187 c -0.91016,0 -1.63672,0.73438 -1.63672,1.63672 v 21.82032 c 0,0.90234 0.72656,1.63281 1.63672,1.63281 0.90234,0 1.63672,-0.73047 1.63672,-1.63281 v -20.1875 c 0,0 10.40234,0 10.40234,0 v 10.76171 c 0,0.90235 0.73438,1.63672 1.63281,1.63672 0.90235,0 1.63672,-0.73437 1.63672,-1.63672 z m 0,0"
       id="path18" />
    <g
       style="fill:#ffffff;fill-opacity:1"
       id="g24">
      <g
         transform="translate(49.752965,220.92315)"
         id="g22">
        <path
           style="stroke:none"
           d="m 3.984375,0 v -31.765625 h 3.125 V -2.78125 H 25.46875 V 0 Z m 0,0"
           id="path20" />
      </g>
    </g>
    <g
       style="fill:#ffffff;fill-opacity:1"
       id="g30">
      <g
         transform="translate(74.002994,220.92315)"
         id="g28">
        <path
           style="stroke:none"
           d="m 1.484375,-6.71875 c 0,-1.457031 0.414063,-2.710938 1.25,-3.765625 0.832031,-1.0625 1.984375,-1.882813 3.453125,-2.46875 1.476562,-0.582031 3.191406,-0.875 5.140625,-0.875 1.125,0 2.296875,0.08984 3.515625,0.265625 1.226562,0.179688 2.320312,0.449219 3.28125,0.8125 v -1.96875 c 0,-1.96875 -0.585938,-3.535156 -1.75,-4.703125 -1.15625,-1.164063 -2.765625,-1.75 -4.828125,-1.75 -1.25,0 -2.480469,0.234375 -3.6875,0.703125 -1.210937,0.460938 -2.46875,1.136719 -3.78125,2.03125 L 2.90625,-20.578125 c 1.519531,-1.050781 3.007812,-1.835937 4.46875,-2.359375 1.46875,-0.519531 2.960938,-0.78125 4.484375,-0.78125 2.863281,0 5.128906,0.824219 6.796875,2.46875 1.675781,1.636719 2.515625,3.902344 2.515625,6.796875 v 10.78125 c 0,0.417969 0.08594,0.726563 0.265625,0.921875 0.175781,0.1875 0.457031,0.296875 0.84375,0.328125 V 0 C 21.957031,0.03125 21.675781,0.0625 21.4375,0.09375 21.195312,0.125 21.015625,0.125 20.890625,0.09375 20.148438,0.0625 19.582031,-0.175781 19.1875,-0.625 18.800781,-1.070312 18.597656,-1.550781 18.578125,-2.0625 l -0.04687,-1.703125 c -1.054688,1.34375 -2.414062,2.386719 -4.078125,3.125 -1.667969,0.7265625 -3.367187,1.09375 -5.09375,1.09375 -1.5,0 -2.855469,-0.324219 -4.0625,-0.96875 -1.210937,-0.644531 -2.148437,-1.507813 -2.8125,-2.59375 -0.667969,-1.09375 -1,-2.296875 -1,-3.609375 z M 17.09375,-4.921875 C 17.425781,-5.335938 17.679688,-5.738281 17.859375,-6.125 18.035156,-6.519531 18.125,-6.863281 18.125,-7.15625 v -3.40625 c -1.011719,-0.382812 -2.0625,-0.679688 -3.15625,-0.890625 -1.09375,-0.207031 -2.1875,-0.3125 -3.28125,-0.3125 -2.1875,0 -3.953125,0.433594 -5.296875,1.296875 -1.335937,0.867188 -2,2.042969 -2,3.53125 0,0.867188 0.222656,1.679688 0.671875,2.4375 0.445312,0.761719 1.101562,1.390625 1.96875,1.890625 0.863281,0.492187 1.875,0.734375 3.03125,0.734375 1.46875,0 2.832031,-0.28125 4.09375,-0.84375 1.269531,-0.570312 2.25,-1.304688 2.9375,-2.203125 z m 0,0"
           id="path26" />
      </g>
    </g>
    <g
       style="fill:#ffffff;fill-opacity:1"
       id="g36">
      <g
         transform="translate(96.552832,220.92315)"
         id="g34">
        <path
           style="stroke:none"
           d="m 14.984375,-20.625 c -2.023437,0.05469 -3.804687,0.621094 -5.34375,1.703125 C 8.109375,-17.847656 7.03125,-16.375 6.40625,-14.5 V 0 H 3.359375 V -23.3125 H 6.21875 v 5.59375 c 0.800781,-1.644531 1.863281,-2.972656 3.1875,-3.984375 1.332031,-1.007813 2.75,-1.578125 4.25,-1.703125 0.289062,-0.03125 0.546875,-0.04687 0.765625,-0.04687 0.226563,0 0.414063,0.01563 0.5625,0.04687 z m 0,0"
           id="path32" />
      </g>
    </g>
    <g
       style="fill:#ffffff;fill-opacity:1"
       id="g42">
      <g
         transform="translate(110.42269,220.92315)"
         id="g40">
        <path
           style="stroke:none"
           d=""
           id="path38" />
      </g>
    </g>
    <g
       style="fill:#ffffff;fill-opacity:1"
       id="g48">
      <g
         transform="translate(119.99731,220.92315)"
         id="g46">
        <path
           style="stroke:none"
           d="m 3.984375,0 v -31.765625 h 10.78125 c 3.375,0 6.1875,0.710937 8.4375,2.125 2.25,1.417969 3.941406,3.328125 5.078125,5.734375 1.132812,2.398438 1.703125,5.054688 1.703125,7.96875 0,3.230469 -0.621094,6.039062 -1.859375,8.421875 -1.242188,2.386719 -3,4.234375 -5.28125,5.546875 C 20.5625,-0.65625 17.867188,0 14.765625,0 Z M 26.84375,-15.9375 c 0,-2.53125 -0.46875,-4.78125 -1.40625,-6.75 -0.9375,-1.96875 -2.304688,-3.507812 -4.09375,-4.625 C 19.550781,-28.4375 17.359375,-29 14.765625,-29 h -7.65625 v 26.21875 h 7.65625 c 2.625,0 4.832031,-0.578125 6.625,-1.734375 1.789063,-1.164063 3.144531,-2.738281 4.0625,-4.71875 0.925781,-1.988281 1.390625,-4.222656 1.390625,-6.703125 z m 0,0"
           id="path44" />
      </g>
    </g>
    <g
       style="fill:#ffffff;fill-opacity:1"
       id="g54">
      <g
         transform="translate(150.1533,220.92315)"
         id="g52">
        <path
           style="stroke:none"
           d="m 13.296875,0.453125 c -1.679687,0 -3.226563,-0.324219 -4.640625,-0.96875 C 7.238281,-1.160156 6.015625,-2.039062 4.984375,-3.15625 3.960938,-4.269531 3.164062,-5.550781 2.59375,-7 2.03125,-8.445312 1.75,-9.976562 1.75,-11.59375 c 0,-1.664062 0.28125,-3.222656 0.84375,-4.671875 0.570312,-1.445313 1.378906,-2.726563 2.421875,-3.84375 1.039063,-1.125 2.269531,-2.003906 3.6875,-2.640625 1.414063,-0.644531 2.957031,-0.96875 4.625,-0.96875 1.675781,0 3.210937,0.324219 4.609375,0.96875 1.40625,0.636719 2.628906,1.515625 3.671875,2.640625 1.050781,1.117187 1.859375,2.398437 2.421875,3.84375 0.5625,1.449219 0.84375,3.007813 0.84375,4.671875 0,1.617188 -0.28125,3.148438 -0.84375,4.59375 -0.5625,1.449219 -1.359375,2.730469 -2.390625,3.84375 -1.03125,1.117188 -2.257813,1.996094 -3.671875,2.640625 -1.417969,0.644531 -2.976562,0.96875 -4.671875,0.96875 z m -8.46875,-12 c 0,1.730469 0.378906,3.304687 1.140625,4.71875 0.757812,1.417969 1.78125,2.539063 3.0625,3.359375 1.289062,0.824219 2.710938,1.234375 4.265625,1.234375 1.550781,0 2.96875,-0.414063 4.25,-1.25 1.28125,-0.84375 2.304687,-1.984375 3.078125,-3.421875 0.78125,-1.445312 1.171875,-3.023438 1.171875,-4.734375 0,-1.726563 -0.390625,-3.304687 -1.171875,-4.734375 -0.773438,-1.4375 -1.796875,-2.570312 -3.078125,-3.40625 -1.28125,-0.832031 -2.699219,-1.25 -4.25,-1.25 -1.554687,0 -2.964844,0.433594 -4.234375,1.296875 -1.273438,0.867187 -2.296875,2.007813 -3.078125,3.421875 -0.773437,1.417969 -1.15625,3.007812 -1.15625,4.765625 z m 0,0"
           id="path50" />
      </g>
    </g>
    <g
       style="fill:#ffffff;fill-opacity:1"
       id="g60">
      <g
         transform="translate(174.94024,220.92315)"
         id="g58">
        <path
           style="stroke:none"
           d="m 13.46875,0.453125 c -1.699219,0 -3.257812,-0.324219 -4.671875,-0.96875 -1.417969,-0.644531 -2.65625,-1.53125 -3.71875,-2.65625 C 4.015625,-4.304688 3.191406,-5.601562 2.609375,-7.0625 2.035156,-8.53125 1.75,-10.082031 1.75,-11.71875 c 0,-2.207031 0.488281,-4.222656 1.46875,-6.046875 0.988281,-1.820313 2.363281,-3.269531 4.125,-4.34375 1.757812,-1.070313 3.785156,-1.609375 6.078125,-1.609375 2.175781,0 4.097656,0.5 5.765625,1.5 1.675781,1 2.914062,2.351562 3.71875,4.046875 l -2.953125,0.9375 c -0.65625,-1.1875 -1.574219,-2.113281 -2.75,-2.78125 -1.179687,-0.675781 -2.480469,-1.015625 -3.90625,-1.015625 -1.554687,0 -2.976563,0.40625 -4.265625,1.21875 -1.28125,0.804688 -2.304688,1.90625 -3.0625,3.3125 -0.761719,1.398438 -1.140625,2.992188 -1.140625,4.78125 0,1.761719 0.382813,3.359375 1.15625,4.796875 0.78125,1.429687 1.8125,2.570313 3.09375,3.421875 1.289063,0.84375 2.707031,1.265625 4.25,1.265625 1.019531,0 2,-0.175781 2.9375,-0.53125 0.9375,-0.363281 1.753906,-0.847656 2.453125,-1.453125 0.707031,-0.613281 1.179688,-1.28125 1.421875,-2 l 3,0.890625 c -0.417969,1.105469 -1.117187,2.101563 -2.09375,2.984375 -0.96875,0.875 -2.105469,1.5625 -3.40625,2.0625 -1.292969,0.488281 -2.683594,0.734375 -4.171875,0.734375 z m 0,0"
           id="path56" />
      </g>
    </g>
    <g
       style="fill:#ffffff;fill-opacity:1"
       id="g66">
      <g
         transform="translate(197.66904,220.92315)"
         id="g64">
        <path
           style="stroke:none"
           d="m 13.421875,0.453125 c -1.667969,0 -3.21875,-0.324219 -4.65625,-0.96875 C 7.335938,-1.160156 6.097656,-2.039062 5.046875,-3.15625 4.003906,-4.269531 3.191406,-5.554688 2.609375,-7.015625 2.035156,-8.484375 1.75,-10.050781 1.75,-11.71875 c 0,-2.175781 0.5,-4.175781 1.5,-6 1,-1.820312 2.378906,-3.273438 4.140625,-4.359375 1.757813,-1.09375 3.753906,-1.640625 5.984375,-1.640625 2.300781,0 4.304688,0.554688 6.015625,1.65625 1.71875,1.105469 3.066406,2.5625 4.046875,4.375 0.988281,1.804688 1.484375,3.777344 1.484375,5.921875 0,0.242187 0,0.476563 0,0.703125 0,0.21875 -0.01563,0.386719 -0.04687,0.5 H 4.921875 c 0.144531,1.667969 0.613281,3.152344 1.40625,4.453125 0.789063,1.304687 1.820313,2.335937 3.09375,3.09375 1.269531,0.761719 2.648437,1.140625 4.140625,1.140625 1.519531,0 2.957031,-0.382812 4.3125,-1.15625 1.351562,-0.78125 2.300781,-1.800781 2.84375,-3.0625 l 2.640625,0.71875 c -0.480469,1.105469 -1.214844,2.105469 -2.203125,3 -0.980469,0.898438 -2.136719,1.59375 -3.46875,2.09375 -1.324219,0.488281 -2.746094,0.734375 -4.265625,0.734375 z M 4.828125,-12.75 H 22.0625 c -0.125,-1.695312 -0.585938,-3.1875 -1.375,-4.46875 -0.78125,-1.289062 -1.808594,-2.300781 -3.078125,-3.03125 -1.273437,-0.726562 -2.667969,-1.09375 -4.1875,-1.09375 -1.523437,0 -2.90625,0.367188 -4.15625,1.09375 -1.25,0.730469 -2.273437,1.746094 -3.0625,3.046875 -0.792969,1.292969 -1.25,2.777344 -1.375,4.453125 z m 0,0"
           id="path62" />
      </g>
    </g>
    <g
       style="fill:#ffffff;fill-opacity:1"
       id="g72">
      <g
         transform="translate(222.09805,220.92315)"
         id="g70">
        <path
           style="stroke:none"
           d=""
           id="path68" />
      </g>
    </g>
    <g
       style="fill:#ffffff;fill-opacity:1"
       id="g78">
      <g
         transform="translate(231.67266,220.92315)"
         id="g76">
        <path
           style="stroke:none"
           d="m 1.875,-16.109375 c 0,-1.9375 0.332031,-3.835937 1,-5.703125 0.675781,-1.863281 1.65625,-3.5625 2.9375,-5.09375 1.28125,-1.539062 2.859375,-2.765625 4.734375,-3.671875 1.882813,-0.914063 4.019531,-1.375 6.40625,-1.375 2.84375,0 5.269531,0.652344 7.28125,1.953125 2.007813,1.292969 3.492187,2.953125 4.453125,4.984375 L 26.21875,-23.5 c -0.6875,-1.394531 -1.554688,-2.503906 -2.59375,-3.328125 -1.042969,-0.820313 -2.152344,-1.410156 -3.328125,-1.765625 -1.179687,-0.351562 -2.351563,-0.53125 -3.515625,-0.53125 -1.90625,0 -3.59375,0.382812 -5.0625,1.140625 -1.460938,0.761719 -2.6875,1.777344 -3.6875,3.046875 -1,1.261719 -1.757812,2.679688 -2.265625,4.25 -0.5,1.5625 -0.75,3.148438 -0.75,4.75 0,1.761719 0.296875,3.449219 0.890625,5.0625 0.59375,1.617188 1.425781,3.042969 2.5,4.28125 1.082031,1.230469 2.34375,2.214844 3.78125,2.953125 1.445312,0.730469 3.023438,1.09375 4.734375,1.09375 1.1875,0 2.40625,-0.207031 3.65625,-0.625 1.257813,-0.414063 2.429687,-1.054687 3.515625,-1.921875 1.09375,-0.875 1.96875,-1.992188 2.625,-3.359375 l 2.59375,1.34375 c -0.65625,1.574219 -1.671875,2.914063 -3.046875,4.015625 -1.375,1.105469 -2.90625,1.945312 -4.59375,2.515625 -1.679687,0.5625 -3.324219,0.84375 -4.9375,0.84375 -2.179687,0 -4.179687,-0.46875 -6,-1.40625 -1.8125,-0.9375 -3.386719,-2.1875 -4.71875,-3.75 -1.324219,-1.570313 -2.34375,-3.332031 -3.0625,-5.28125 -0.71875,-1.957031 -1.078125,-3.9375 -1.078125,-5.9375 z m 0,0"
           id="path74" />
      </g>
    </g>
    <g
       style="fill:#ffffff;fill-opacity:1"
       id="g84">
      <g
         transform="translate(260.53115,220.92315)"
         id="g82">
        <path
           style="stroke:none"
           d="M 3.484375,-32.671875 H 6.53125 V -5.28125 c 0,1.167969 0.207031,1.929688 0.625,2.28125 0.414062,0.355469 0.925781,0.53125 1.53125,0.53125 0.53125,0 1.0625,-0.054688 1.59375,-0.171875 C 10.820312,-2.753906 11.289062,-2.875 11.6875,-3 l 0.53125,2.46875 c -0.574219,0.242188 -1.273438,0.4335938 -2.09375,0.578125 -0.8125,0.144531 -1.515625,0.21875 -2.109375,0.21875 -1.375,0 -2.476563,-0.398437 -3.296875,-1.203125 C 3.894531,-1.738281 3.484375,-2.84375 3.484375,-4.25 Z m 0,0"
           id="path80" />
      </g>
    </g>
    <g
       style="fill:#ffffff;fill-opacity:1"
       id="g90">
      <g
         transform="translate(270.86638,220.92315)"
         id="g88">
        <path
           style="stroke:none"
           d="M 3.359375,0 V -23.3125 H 6.40625 V 0 Z m 0,-28.1875 v -4.484375 H 6.40625 v 4.484375 z m 0,0"
           id="path86" />
      </g>
    </g>
    <g
       style="fill:#ffffff;fill-opacity:1"
       id="g96">
      <g
         transform="translate(278.78553,220.92315)"
         id="g94">
        <path
           style="stroke:none"
           d="m 13.46875,0.453125 c -1.699219,0 -3.257812,-0.324219 -4.671875,-0.96875 -1.417969,-0.644531 -2.65625,-1.53125 -3.71875,-2.65625 C 4.015625,-4.304688 3.191406,-5.601562 2.609375,-7.0625 2.035156,-8.53125 1.75,-10.082031 1.75,-11.71875 c 0,-2.207031 0.488281,-4.222656 1.46875,-6.046875 0.988281,-1.820313 2.363281,-3.269531 4.125,-4.34375 1.757812,-1.070313 3.785156,-1.609375 6.078125,-1.609375 2.175781,0 4.097656,0.5 5.765625,1.5 1.675781,1 2.914062,2.351562 3.71875,4.046875 l -2.953125,0.9375 c -0.65625,-1.1875 -1.574219,-2.113281 -2.75,-2.78125 -1.179687,-0.675781 -2.480469,-1.015625 -3.90625,-1.015625 -1.554687,0 -2.976563,0.40625 -4.265625,1.21875 -1.28125,0.804688 -2.304688,1.90625 -3.0625,3.3125 -0.761719,1.398438 -1.140625,2.992188 -1.140625,4.78125 0,1.761719 0.382813,3.359375 1.15625,4.796875 0.78125,1.429687 1.8125,2.570313 3.09375,3.421875 1.289063,0.84375 2.707031,1.265625 4.25,1.265625 1.019531,0 2,-0.175781 2.9375,-0.53125 0.9375,-0.363281 1.753906,-0.847656 2.453125,-1.453125 0.707031,-0.613281 1.179688,-1.28125 1.421875,-2 l 3,0.890625 c -0.417969,1.105469 -1.117187,2.101563 -2.09375,2.984375 -0.96875,0.875 -2.105469,1.5625 -3.40625,2.0625 -1.292969,0.488281 -2.683594,0.734375 -4.171875,0.734375 z m 0,0"
           id="path92" />
      </g>
    </g>
    <g
       style="fill:#ffffff;fill-opacity:1"
       id="g102">
      <g
         transform="translate(301.51434,220.92315)"
         id="g100">
        <path
           style="stroke:none"
           d="M 20,0 11.359375,-11.953125 6.40625,-7.296875 V 0 H 3.359375 V -32.671875 H 6.40625 V -10.5625 l 13.1875,-12.703125 h 3.359375 l -9.53125,9.53125 L 23.3125,0 Z m 0,0"
           id="path98" />
      </g>
    </g>
    <g
       style="fill:#ffffff;fill-opacity:1"
       id="g108">
      <g
         transform="translate(78.468031,244.22183)"
         id="g106">
        <path
           style="stroke:none"
           d="M 1.234375,-8.765625 H 5 c 0.539062,0 1.019531,0.078125 1.4375,0.234375 0.425781,0.15625 0.78125,0.371094 1.0625,0.640625 0.21875,0.21875 0.382812,0.476563 0.5,0.765625 0.113281,0.292969 0.171875,0.617188 0.171875,0.96875 V -6.125 c 0,0.367188 -0.058594,0.695312 -0.171875,0.984375 -0.117188,0.28125 -0.28125,0.53125 -0.5,0.75 C 7.289062,-4.179688 7.039062,-4.007812 6.75,-3.875 6.457031,-3.738281 6.140625,-3.640625 5.796875,-3.578125 L 8.484375,0 h -1.21875 l -2.53125,-3.40625 h -2.5 V 0 h -1 z m 3.6875,4.46875 c 0.320313,0 0.617187,-0.039063 0.890625,-0.125 0.28125,-0.082031 0.519531,-0.195313 0.71875,-0.34375 C 6.726562,-4.921875 6.882812,-5.109375 7,-5.328125 7.113281,-5.554688 7.171875,-5.8125 7.171875,-6.09375 V -6.125 c 0,-0.539062 -0.199219,-0.960938 -0.59375,-1.265625 C 6.191406,-7.691406 5.644531,-7.84375 4.9375,-7.84375 H 2.234375 v 3.546875 z m 0,0"
           id="path104" />
      </g>
    </g>
    <g
       style="fill:#ffffff;fill-opacity:1"
       id="g114">
      <g
         transform="translate(91.550814,244.22183)"
         id="g112">
        <path
           style="stroke:none"
           d="m 1.234375,-8.765625 h 6.34375 v 0.90625 H 2.234375 V -4.875 h 4.78125 v 0.90625 h -4.78125 v 3.0625 h 5.40625 V 0 h -6.40625 z m 0,0"
           id="path110" />
      </g>
    </g>
    <g
       style="fill:#ffffff;fill-opacity:1"
       id="g120">
      <g
         transform="translate(103.97093,244.22183)"
         id="g118">
        <path
           style="stroke:none"
           d="M 4.484375,-8.828125 H 5.40625 L 9.40625,0 H 8.328125 L 7.3125,-2.3125 H 2.546875 L 1.5,0 H 0.484375 Z m 2.4375,5.625 -1.984375,-4.46875 -2.015625,4.46875 z m 0,0"
           id="path116" />
      </g>
    </g>
    <g
       style="fill:#ffffff;fill-opacity:1"
       id="g126">
      <g
         transform="translate(117.89143,244.22183)"
         id="g124">
        <path
           style="stroke:none"
           d="m 1.234375,-8.765625 h 1 V -0.90625 H 7.15625 V 0 H 1.234375 Z m 0,0"
           id="path122" />
      </g>
    </g>
    <g
       style="fill:#ffffff;fill-opacity:1"
       id="g132">
      <g
         transform="translate(129.62388,244.22183)"
         id="g130">
        <path
           style="stroke:none"
           d=""
           id="path128" />
      </g>
    </g>
    <g
       style="fill:#ffffff;fill-opacity:1"
       id="g138">
      <g
         transform="translate(137.41782,244.22183)"
         id="g136">
        <path
           style="stroke:none"
           d="m 1.234375,-8.765625 h 6.34375 v 0.90625 H 2.234375 V -4.875 h 4.78125 v 0.90625 h -4.78125 v 3.0625 h 5.40625 V 0 h -6.40625 z m 0,0"
           id="path134" />
      </g>
    </g>
    <g
       style="fill:#ffffff;fill-opacity:1"
       id="g144">
      <g
         transform="translate(149.83794,244.22183)"
         id="g142">
        <path
           style="stroke:none"
           d="M 4.25,0.125 C 3.539062,0.125 2.894531,0.0078125 2.3125,-0.21875 1.738281,-0.445312 1.1875,-0.800781 0.65625,-1.28125 L 1.28125,-2 c 0.457031,0.417969 0.914062,0.730469 1.375,0.9375 0.46875,0.199219 1.007812,0.296875 1.625,0.296875 0.59375,0 1.066406,-0.140625 1.421875,-0.421875 0.351563,-0.28125 0.53125,-0.632812 0.53125,-1.0625 v -0.03125 c 0,-0.195312 -0.039063,-0.375 -0.109375,-0.53125 C 6.0625,-2.976562 5.945312,-3.128906 5.78125,-3.265625 5.613281,-3.398438 5.378906,-3.519531 5.078125,-3.625 c -0.292969,-0.113281 -0.667969,-0.21875 -1.125,-0.3125 -0.5,-0.113281 -0.9375,-0.238281 -1.3125,-0.375 C 2.273438,-4.457031 1.96875,-4.628906 1.71875,-4.828125 1.476562,-5.023438 1.300781,-5.257812 1.1875,-5.53125 1.070312,-5.800781 1.015625,-6.113281 1.015625,-6.46875 V -6.5 c 0,-0.34375 0.066406,-0.660156 0.203125,-0.953125 0.144531,-0.289063 0.347656,-0.539063 0.609375,-0.75 0.257813,-0.207031 0.5625,-0.375 0.90625,-0.5 0.351563,-0.125 0.738281,-0.1875 1.15625,-0.1875 0.644531,0 1.207031,0.09375 1.6875,0.28125 0.476563,0.179687 0.941406,0.445313 1.390625,0.796875 L 6.390625,-7.046875 C 5.984375,-7.378906 5.570312,-7.617188 5.15625,-7.765625 4.75,-7.921875 4.320312,-8 3.875,-8 3.289062,-8 2.832031,-7.863281 2.5,-7.59375 2.164062,-7.320312 2,-6.984375 2,-6.578125 V -6.5625 c 0,0.210938 0.03125,0.398438 0.09375,0.5625 0.070312,0.167969 0.195312,0.320312 0.375,0.453125 0.175781,0.136719 0.414062,0.261719 0.71875,0.375 0.3125,0.117187 0.707031,0.21875 1.1875,0.3125 0.976562,0.21875 1.695312,0.523437 2.15625,0.90625 C 7,-3.566406 7.234375,-3.039062 7.234375,-2.375 v 0.015625 c 0,0.375 -0.078125,0.71875 -0.234375,1.03125 -0.148438,0.304687 -0.351562,0.5625 -0.609375,0.78125 -0.261719,0.21875 -0.578125,0.386719 -0.953125,0.5 C 5.070312,0.0664062 4.675781,0.125 4.25,0.125 Z m 0,0"
           id="path140" />
      </g>
    </g>
    <g
       style="fill:#ffffff;fill-opacity:1"
       id="g150">
      <g
         transform="translate(161.88296,244.22183)"
         id="g148">
        <path
           style="stroke:none"
           d="M 3.515625,-7.84375 H 0.5625 V -8.765625 H 7.453125 V -7.84375 H 4.5 V 0 H 3.515625 Z m 0,0"
           id="path146" />
      </g>
    </g>
    <g
       style="fill:#ffffff;fill-opacity:1"
       id="g156">
      <g
         transform="translate(173.94049,244.22183)"
         id="g154">
        <path
           style="stroke:none"
           d="M 4.484375,-8.828125 H 5.40625 L 9.40625,0 H 8.328125 L 7.3125,-2.3125 H 2.546875 L 1.5,0 H 0.484375 Z m 2.4375,5.625 -1.984375,-4.46875 -2.015625,4.46875 z m 0,0"
           id="path152" />
      </g>
    </g>
    <g
       style="fill:#ffffff;fill-opacity:1"
       id="g162">
      <g
         transform="translate(187.86099,244.22183)"
         id="g160">
        <path
           style="stroke:none"
           d="M 3.515625,-7.84375 H 0.5625 V -8.765625 H 7.453125 V -7.84375 H 4.5 V 0 H 3.515625 Z m 0,0"
           id="path158" />
      </g>
    </g>
    <g
       style="fill:#ffffff;fill-opacity:1"
       id="g168">
      <g
         transform="translate(199.91852,244.22183)"
         id="g166">
        <path
           style="stroke:none"
           d="m 1.234375,-8.765625 h 6.34375 v 0.90625 H 2.234375 V -4.875 h 4.78125 v 0.90625 h -4.78125 v 3.0625 h 5.40625 V 0 h -6.40625 z m 0,0"
           id="path164" />
      </g>
    </g>
    <g
       style="fill:#ffffff;fill-opacity:1"
       id="g174">
      <g
         transform="translate(212.33864,244.22183)"
         id="g172">
        <path
           style="stroke:none"
           d=""
           id="path170" />
      </g>
    </g>
    <g
       style="fill:#ffffff;fill-opacity:1"
       id="g180">
      <g
         transform="translate(220.13258,244.22183)"
         id="g178">
        <path
           style="stroke:none"
           d="M 4.484375,-8.828125 H 5.40625 L 9.40625,0 H 8.328125 L 7.3125,-2.3125 H 2.546875 L 1.5,0 H 0.484375 Z m 2.4375,5.625 -1.984375,-4.46875 -2.015625,4.46875 z m 0,0"
           id="path176" />
      </g>
    </g>
    <g
       style="fill:#ffffff;fill-opacity:1"
       id="g186">
      <g
         transform="translate(234.05309,244.22183)"
         id="g184">
        <path
           style="stroke:none"
           d="M 5.3125,0.15625 C 4.613281,0.15625 3.988281,0.0390625 3.4375,-0.1875 2.894531,-0.425781 2.429688,-0.75 2.046875,-1.15625 1.660156,-1.570312 1.363281,-2.050781 1.15625,-2.59375 0.945312,-3.144531 0.84375,-3.734375 0.84375,-4.359375 V -4.375 c 0,-0.601562 0.101562,-1.175781 0.3125,-1.71875 0.21875,-0.550781 0.519531,-1.035156 0.90625,-1.453125 0.382812,-0.414063 0.84375,-0.742187 1.375,-0.984375 0.539062,-0.25 1.144531,-0.375 1.8125,-0.375 0.363281,0 0.695312,0.027344 1,0.078125 0.300781,0.042969 0.582031,0.117187 0.84375,0.21875 0.269531,0.105469 0.519531,0.230469 0.75,0.375 0.226562,0.148437 0.453125,0.308594 0.671875,0.484375 L 7.875,-7 C 7.707031,-7.144531 7.53125,-7.273438 7.34375,-7.390625 7.164062,-7.515625 6.96875,-7.617188 6.75,-7.703125 6.539062,-7.796875 6.304688,-7.867188 6.046875,-7.921875 5.796875,-7.972656 5.515625,-8 5.203125,-8 4.722656,-8 4.273438,-7.898438 3.859375,-7.703125 3.453125,-7.515625 3.101562,-7.257812 2.8125,-6.9375 2.519531,-6.613281 2.289062,-6.226562 2.125,-5.78125 c -0.167969,0.4375 -0.25,0.898438 -0.25,1.375 V -4.375 c 0,0.523438 0.078125,1.007812 0.234375,1.453125 0.164063,0.4375 0.398437,0.820313 0.703125,1.140625 0.300781,0.324219 0.664062,0.578125 1.09375,0.765625 0.425781,0.1875 0.90625,0.28125 1.4375,0.28125 0.5,0 0.96875,-0.082031 1.40625,-0.25 0.445312,-0.175781 0.820312,-0.382813 1.125,-0.625 v -2.1875 H 5.203125 V -4.6875 h 3.625 v 3.5 C 8.410156,-0.820312 7.90625,-0.503906 7.3125,-0.234375 6.71875,0.0234375 6.050781,0.15625 5.3125,0.15625 Z m 0,0"
           id="path182" />
      </g>
    </g>
    <g
       style="fill:#ffffff;fill-opacity:1"
       id="g192">
      <g
         transform="translate(247.89857,244.22183)"
         id="g190">
        <path
           style="stroke:none"
           d="m 1.234375,-8.765625 h 6.34375 v 0.90625 H 2.234375 V -4.875 h 4.78125 v 0.90625 h -4.78125 v 3.0625 h 5.40625 V 0 h -6.40625 z m 0,0"
           id="path188" />
      </g>
    </g>
    <g
       style="fill:#ffffff;fill-opacity:1"
       id="g198">
      <g
         transform="translate(260.31868,244.22183)"
         id="g196">
        <path
           style="stroke:none"
           d="m 1.234375,-8.765625 h 0.9375 l 5.515625,7.03125 v -7.03125 H 8.640625 V 0 H 7.859375 L 2.203125,-7.1875 V 0 h -0.96875 z m 0,0"
           id="path194" />
      </g>
    </g>
    <g
       style="fill:#ffffff;fill-opacity:1"
       id="g204">
      <g
         transform="translate(274.23919,244.22183)"
         id="g202">
        <path
           style="stroke:none"
           d="M 5.25,0.15625 C 4.613281,0.15625 4.023438,0.0390625 3.484375,-0.1875 2.953125,-0.425781 2.488281,-0.75 2.09375,-1.15625 1.707031,-1.5625 1.398438,-2.039062 1.171875,-2.59375 0.953125,-3.144531 0.84375,-3.734375 0.84375,-4.359375 V -4.375 c 0,-0.625 0.109375,-1.207031 0.328125,-1.75 C 1.398438,-6.675781 1.707031,-7.160156 2.09375,-7.578125 2.488281,-7.992188 2.957031,-8.316406 3.5,-8.546875 4.039062,-8.785156 4.632812,-8.90625 5.28125,-8.90625 c 0.394531,0 0.753906,0.039062 1.078125,0.109375 0.320313,0.0625 0.617187,0.15625 0.890625,0.28125 0.28125,0.117187 0.535156,0.261719 0.765625,0.4375 0.238281,0.167969 0.46875,0.355469 0.6875,0.5625 l -0.6875,0.71875 C 7.640625,-7.148438 7.238281,-7.4375 6.8125,-7.65625 6.382812,-7.882812 5.867188,-8 5.265625,-8 4.785156,-8 4.335938,-7.90625 3.921875,-7.71875 3.503906,-7.539062 3.144531,-7.285156 2.84375,-6.953125 2.539062,-6.628906 2.300781,-6.25 2.125,-5.8125 1.957031,-5.375 1.875,-4.90625 1.875,-4.40625 V -4.375 c 0,0.511719 0.082031,0.984375 0.25,1.421875 0.175781,0.4375 0.414062,0.820313 0.71875,1.140625 0.300781,0.324219 0.660156,0.578125 1.078125,0.765625 0.414063,0.1875 0.863281,0.28125 1.34375,0.28125 0.601563,0 1.117187,-0.109375 1.546875,-0.328125 C 7.25,-1.3125 7.675781,-1.625 8.09375,-2.03125 L 8.75,-1.390625 C 8.519531,-1.148438 8.28125,-0.9375 8.03125,-0.75 7.789062,-0.5625 7.53125,-0.398438 7.25,-0.265625 6.96875,-0.140625 6.660156,-0.0390625 6.328125,0.03125 6.003906,0.113281 5.644531,0.15625 5.25,0.15625 Z m 0,0"
           id="path200" />
      </g>
    </g>
    <g
       style="fill:#ffffff;fill-opacity:1"
       id="g210">
      <g
         transform="translate(287.55952,244.22183)"
         id="g208">
        <path
           style="stroke:none"
           d="M 3.984375,-3.46875 0.34375,-8.765625 H 1.546875 L 4.5,-4.375 7.46875,-8.765625 H 8.625 l -3.640625,5.28125 V 0 h -1 z m 0,0"
           id="path206" />
      </g>
    </g>
  </g>
</svg>
